<?xml version="1.0" encoding="UTF-8" standalone="no"?>
<!-- Created with Inkscape (http://www.inkscape.org/) -->

<svg
   width="4.2333336mm"
   height="4.2333336mm"
   viewBox="0 0 4.2333336 4.2333336"
   version="1.1"
   id="svg47"
   xmlns="http://www.w3.org/2000/svg"
>
  <g transform="translate(-18.293285,-29.905846)">
    <path
       id="path31-3"
       style="fill:#ffffff;stroke-width:0.113242;stroke-linecap:round;stroke-linejoin:round;paint-order:fill markers stroke"
       d="m 20.409953,29.969924 a 2.0525921,2.0525921 0 0 0 -2.052588,2.052588 2.0525921,2.0525921 0 0 0 2.052588,2.052588 2.0525921,2.0525921 0 0 0 2.052588,-2.052588 2.0525921,2.0525921 0 0 0 -2.052588,-2.052588 z m 0,0.304891 a 1.7477165,1.7477165 0 0 1 1.747697,1.747697 1.7477165,1.7477165 0 0 1 -1.747697,1.747697 1.7477165,1.7477165 0 0 1 -1.747697,-1.747697 1.7477165,1.7477165 0 0 1 1.747697,-1.747697 z m 0,0.981852 a 0.76590603,0.76590603 0 0 0 -0.765845,0.765845 0.76590603,0.76590603 0 0 0 0.765845,0.765844 0.76590603,0.76590603 0 0 0 0.765844,-0.765844 0.76590603,0.76590603 0 0 0 -0.765844,-0.765845 z" />
  </g>
</svg>
