<?xml version="1.0" encoding="UTF-8" standalone="no"?>
<!-- Created with Inkscape (http://www.inkscape.org/) -->

<svg
   width="4.2333336mm"
   height="4.2333336mm"
   viewBox="0 0 4.2333336 4.2333336"
   version="1.1"
   id="svg967"
   xmlns="http://www.w3.org/2000/svg">
  <defs
     id="defs13" />
  <g
     id="path1204">
    <path
       style="color:#000000;fill:#fffffb;stroke-width:0.214;stroke-linecap:round;stroke-linejoin:round;-inkscape-stroke:none;paint-order:fill markers stroke"
       d="m 4.089079,2.0563225 c 0,1.0289629 -0.8331367,1.8631023 -1.3433946,1.8631023 -0.5102579,-10e-8 -0.5044128,-0.8341394 -0.5044128,-1.8631023 0,-1.0289628 -0.00584,-1.86310211 0.5044128,-1.86310221 0.5102579,0 1.3433946,0.83413931 1.3433946,1.86310221 z"
       id="path1994" />
    <path
       style="color:#000000;fill:#feffff;stroke-linecap:round;stroke-linejoin:round;-inkscape-stroke:none;paint-order:fill markers stroke"
       d="m 2.7460938,0.0859375 c -0.1567163,3e-8 -0.2914586,0.07367204 -0.3789063,0.18945313 C 2.2797398,0.39117171 2.2300544,0.54136545 2.1972656,0.71875 c -0.065577,0.3547691 -0.0625,0.8236122 -0.0625,1.3378906 0,0.5142784 -0.00308,0.9811683 0.0625,1.3359375 0.032788,0.1773846 0.082474,0.3295313 0.1699219,0.4453125 0.087448,0.1157812 0.2221891,0.1894531 0.3789063,0.1894531 0.3134343,0 0.6597622,-0.2320725 0.9453125,-0.5859374 0.2855502,-0.353865 0.5039062,-0.841406 0.5039062,-1.3847657 0,-0.5433597 -0.218356,-1.0309007 -0.5039062,-1.3847656 C 3.405856,0.31801006 3.0595281,0.0859375 2.7460938,0.0859375 Z m 0,0.21484375 c 0.196823,0 0.5207148,0.18541461 0.7792968,0.50585938 0.258582,0.32044477 0.4570313,0.76439787 0.4570313,1.24999997 0,0.4856022 -0.1984493,0.9295552 -0.4570313,1.25 C 3.2668086,3.6270854 2.9429167,3.8125 2.7460938,3.8125 2.6476822,3.8125 2.5920753,3.7817592 2.5371094,3.7089844 2.4821435,3.6362095 2.4377356,3.5132859 2.4082031,3.3535156 2.3491381,3.0339751 2.3476563,2.5713242 2.3476563,2.0566406 c 0,-0.5146833 0.00148,-0.9792875 0.060547,-1.2988281 0.029533,-0.1597703 0.07394,-0.28074067 0.1289063,-0.35351562 0.054966,-0.072775 0.1105744,-0.10351561 0.2089844,-0.10351563 z"
       id="path1996" />
  </g>
  <path
     style="color:#000000;fill:#feffff;stroke-linecap:round;stroke-linejoin:round;-inkscape-stroke:none;paint-order:fill markers stroke"
     d="m 1.4882812,0.09765625 c -0.3134344,0 -0.66171528,0.23207255 -0.94726558,0.5859375 C 0.25546533,1.0374587 0.03710938,1.5249996 0.03710937,2.0683594 c 0,0.5433597 0.21835596,1.0309007 0.50390625,1.3847656 0.2855503,0.3538649 0.63383118,0.5839844 0.94726558,0.5839844 0.1567172,-1e-7 0.2914583,-0.071719 0.3789063,-0.1875 0.087448,-0.1157812 0.1371335,-0.2679279 0.1699219,-0.4453125 0.065577,-0.3547692 0.0625,-0.8216592 0.0625,-1.3359375 0,-0.5142785 0.00308,-0.9831215 -0.0625,-1.33789065 C 2.0043206,0.5530842 1.9546352,0.40289046 1.8671875,0.28710938 1.7797398,0.17132829 1.6449975,0.09765628 1.4882812,0.09765625 Z m 0,0.21484375 c 0.09841,2e-8 0.1540186,0.0307407 0.2089844,0.10351563 0.054966,0.0727749 0.099374,0.19374531 0.1289063,0.35351562 0.059066,0.31954065 0.058594,0.78414475 0.058594,1.29882815 0,0.5146835 4.713e-4,0.9773345 -0.058594,1.296875 -0.029532,0.1597702 -0.07394,0.2826939 -0.1289063,0.3554687 -0.054966,0.072775 -0.1105728,0.1035156 -0.2089844,0.1035157 -0.196823,0 -0.52266797,-0.1854147 -0.78124995,-0.5058594 -0.25858198,-0.3204448 -0.45507812,-0.7643979 -0.45507812,-1.25 0,-0.4856022 0.19649614,-0.9295553 0.45507812,-1.25000002 C 0.96561323,0.4979146 1.2914582,0.3125 1.4882812,0.3125 Z"
     id="path1204-3" />
</svg>
