<?xml version="1.0" encoding="UTF-8" standalone="no"?>
<!-- Created with Inkscape (http://www.inkscape.org/) -->

<svg
   width="4.2333336mm"
   height="4.2333336mm"
   viewBox="0 0 4.2333336 4.2333336"
   version="1.1"
   id="svg967"
   xmlns="http://www.w3.org/2000/svg">
  <defs
     id="defs11" />
  <g
     id="path4379"
     style="fill:#ffffff;fill-opacity:1">
    <path
       style="color:#000000;fill:#ffffff;stroke-width:0.242209;-inkscape-stroke:none;fill-opacity:1"
       d="M 2.5730992,0.53564415 C 2.0763787,1.0247144 2.1174995,2.1158593 2.1174995,2.1158593 c 0,0 1.090811,0.040787 1.5798807,-0.4559341 C 4.1697678,1.1801491 3.9991355,0.77827206 3.7271516,0.50620724 3.4550908,0.23406562 3.0528756,0.06325682 2.5730992,0.53564415 Z"
       id="path949" />
    <path
       style="color:#000000;fill:#ffffff;-inkscape-stroke:none;fill-opacity:1"
       d="m 3.2382813,0.12109375 c -0.2336518,-0.021225 -0.4928561,0.0749413 -0.75,0.328125 C 2.2066461,0.72651627 2.0927766,1.1440416 2.0390625,1.4902344 1.9853484,1.8364272 1.9960938,2.1210938 1.9960937,2.1210938 L 2,2.2324219 l 0.1132813,0.00391 c 0,0 0.2827996,0.010832 0.6289062,-0.042969 C 3.0882941,2.1395587 3.5059251,2.0257566 3.7832031,1.7441406 4.0363717,1.4870123 4.1324787,1.2277171 4.1113281,0.99414063 4.0901775,0.7605642 3.9606182,0.56808419 3.8125,0.41992188 3.6643293,0.27170718 3.471933,0.14231875 3.2382813,0.12109375 Z m -0.021484,0.2421875 C 3.3722117,0.37739918 3.5167352,0.46787023 3.640625,0.59179687 3.7644904,0.71569911 3.8570292,0.86030307 3.8710938,1.015625 3.8851583,1.1709469 3.8305467,1.3515714 3.6113281,1.5742187 3.399537,1.7893233 3.0266438,1.9050922 2.7050781,1.9550781 c -0.251685,0.039123 -0.3754283,0.03197 -0.4570312,0.03125 -7.728e-4,-0.080876 -0.00797,-0.2062232 0.03125,-0.4589844 0.049905,-0.3216465 0.1638213,-0.69447771 0.3789062,-0.90624995 0.222632,-0.21920321 0.403179,-0.27193043 0.5585938,-0.2578125 z"
       id="path951" />
  </g>
  <g
     id="path4379-8">
    <path
       style="color:#000000;fill:#ffffff;stroke-width:0.242209;-inkscape-stroke:none"
       d="M 1.6602402,3.6976978 C 2.1569607,3.2086275 2.11584,2.1174825 2.11584,2.1174825 c 0,0 -1.0908111,-0.040787 -1.57988078,0.4559342 -0.4723876,0.4797762 -0.3017553,0.8816532 -0.0297709,1.153718 C 0.7782491,3.9992763 1.1804642,4.1700851 1.6602402,3.6976978 Z"
       id="path957" />
    <path
       style="color:#000000;fill:#fefefe;-inkscape-stroke:none"
       d="m 2.1210938,1.9960937 c 0,0 -0.2847528,-0.010832 -0.6308594,0.042969 -0.3461066,0.053801 -0.76373761,0.1676027 -1.04101565,0.4492188 -0.25316852,0.2571283 -0.34927569,0.5164235 -0.328125,0.75 C 0.14224444,3.4718577 0.27180335,3.6643377 0.41992188,3.8125 0.56809254,3.9607147 0.76048898,4.0901031 0.99414063,4.1113281 1.2277923,4.1325531 1.48895,4.0363868 1.7460937,3.7832031 2.0277289,3.5059056 2.1396453,3.0883803 2.1933594,2.7421875 2.2470735,2.3959947 2.2363281,2.1132813 2.2363281,2.1132813 L 2.2324219,2 Z M 1.9863281,2.2480469 c 7.439e-4,0.081628 0.00781,0.2052829 -0.03125,0.4570312 C 1.9051725,3.0267247 1.7912568,3.3995559 1.5761719,3.6113281 1.3535401,3.8305313 1.1710397,3.8852117 1.015625,3.8710938 0.86021029,3.8569758 0.71568671,3.7645516 0.59179687,3.640625 0.46793127,3.5167228 0.37734588,3.3721188 0.36328125,3.2167969 0.34921662,3.061475 0.40382827,2.8808505 0.62304687,2.6582031 0.83483802,2.4430985 1.2057781,2.3292828 1.5273437,2.2792969 1.7800414,2.2400162 1.905477,2.2472982 1.9863281,2.2480469 Z"
       id="path959" />
  </g>
  <path
     style="color:#000000;fill:#fefefe;-inkscape-stroke:none"
     d="M 2.1132813,1.9960937 2,2 1.9960937,2.1132813 c 0,0 -0.010745,0.2827134 0.042969,0.6289062 0.053714,0.3461928 0.1675836,0.7637181 0.4492188,1.0410156 0.2571437,0.2531837 0.5163483,0.34935 0.75,0.328125 C 3.4719329,4.0901031 3.6643293,3.9607147 3.8125,3.8125 3.9606185,3.6643377 4.0901775,3.4718577 4.1113281,3.2382813 4.1324788,3.0047048 4.0363716,2.7454096 3.7832031,2.4882813 3.5059251,2.2066652 3.0882941,2.0928632 2.7421875,2.0390625 2.3960809,1.9852618 2.1132812,1.9960937 2.1132813,1.9960937 Z m 0.1347656,0.2519532 c 0.081645,-7.179e-4 0.2054038,-0.00786 0.4570312,0.03125 0.3215657,0.049986 0.6944589,0.1638016 0.90625,0.3789062 C 3.8305467,2.8808505 3.8851584,3.061475 3.8710938,3.2167969 3.8570291,3.3721188 3.7644906,3.5167228 3.640625,3.640625 3.5167352,3.7645516 3.3722116,3.8569758 3.2167969,3.8710938 3.0613821,3.8852117 2.8808349,3.8305313 2.6582031,3.6113281 2.4431182,3.3995559 2.3292024,3.0267247 2.2792969,2.7050781 2.2402454,2.4533874 2.2473047,2.3297177 2.2480469,2.2480469 Z"
     id="path4379-8-7" />
  <path
     style="color:#000000;fill:#fefefe;-inkscape-stroke:none"
     d="M 0.99414063,0.12304687 C 0.76052273,0.14426881 0.56808207,0.27367078 0.41992188,0.421875 0.27181384,0.57002685 0.14224137,0.76255105 0.12109375,0.99609375 0.09994613,1.2296364 0.19606487,1.4889803 0.44921875,1.7460937 0.72646854,2.0276811 1.1441384,2.1415134 1.4902344,2.1953125 c 0.346096,0.053799 0.6308594,0.042969 0.6308594,0.042969 l 0.1113281,-0.00391 0.00391,-0.1132812 c 0,0 0.010744,-0.2827241 -0.042969,-0.6289063 C 2.1396469,1.1460053 2.0277002,0.72844112 1.7460937,0.45117188 1.4889649,0.19800288 1.2277585,0.10182494 0.99414063,0.12304687 Z M 1.015625,0.36328125 c 0.1554485,-0.014121 0.3379002,0.0405478 0.5605469,0.25976562 0.2151136,0.21180052 0.328999,0.58459283 0.3789062,0.90625003 0.039228,0.2528276 0.032025,0.3781486 0.03125,0.4589843 -0.08081,7.505e-4 -0.2062203,0.00804 -0.4589844,-0.03125 C 1.2057675,1.9070437 0.83486627,1.7913052 0.62304687,1.5761719 0.40381362,1.3535096 0.34921357,1.1729338 0.36328125,1.0175781 0.37734893,0.86222244 0.46792083,0.71766269 0.59179687,0.59375 0.71569719,0.46981287 0.86017652,0.37740225 1.015625,0.36328125 Z"
     id="path4379-8-7-9" />
</svg>
